<svg xmlns="http://www.w3.org/2000/svg" width="18" height="18" viewBox="0 0 18 18"><path fill="#0d76bb" d="M15.36 2.64A8.94 8.94 0 0 0 9.12.01L9 0l-.13.01A8.94 8.94 0 0 0 0 9a8.97 8.97 0 0 0 9 9l.12-.01A8.94 8.94 0 0 0 17.99 9c0-2.4-.94-4.66-2.63-6.36zM3.39 3.4a7.87 7.87 0 0 1 3.38-2.01A10.2 10.2 0 0 0 5.1 4.23H2.66c.22-.29.47-.57.73-.83zM1.98 5.3h2.76c-.29 1-.46 2.07-.5 3.17H1.09c.07-1.12.38-2.2.89-3.17zm0 7.4a7.87 7.87 0 0 1-.89-3.17h3.15c.04 1.1.21 2.17.5 3.17zm1.41 1.9a8.18 8.18 0 0 1-.73-.83H5.1a10.2 10.2 0 0 0 1.67 2.84 7.87 7.87 0 0 1-3.38-2.01zm3.47.33a9.85 9.85 0 0 1-.61-1.16h2.21v2.94a5.76 5.76 0 0 1-1.6-1.78zm1.6-2.23H5.85c-.31-.99-.5-2.06-.54-3.17h3.15zm0-4.23H5.31c.04-1.11.23-2.18.54-3.17h2.61zM6.25 4.23c.18-.4.38-.79.61-1.16a5.76 5.76 0 0 1 1.6-1.78v2.94zm9.76 1.07c.51.97.82 2.05.89 3.17h-3.15c-.04-1.1-.21-2.17-.5-3.17zM14.6 3.4c.26.26.51.54.73.83h-2.44a10.2 10.2 0 0 0-1.67-2.84A7.87 7.87 0 0 1 14.6 3.4zm-3.47-.33c.23.37.43.76.61 1.16H9.53V1.29c.45.29 1.04.88 1.6 1.78zM9.53 5.3h2.61c.31.99.5 2.06.54 3.17H9.53zm3.15 4.23a12.09 12.09 0 0 1-.54 3.17H9.53V9.53zm-3.15 7.18v-2.94h2.21c-.18.4-.38.79-.61 1.16a5.76 5.76 0 0 1-1.6 1.78zm5.07-2.11a7.87 7.87 0 0 1-3.38 2.01 10.2 10.2 0 0 0 1.67-2.84h2.44c-.22.29-.47.57-.73.83zm1.41-1.9h-2.76c.29-1 .46-2.07.5-3.17h3.15a7.87 7.87 0 0 1-.89 3.17z"/></svg>
